<?xml version="1.0" standalone="no"?>
<svg width="1470px" height="1373px" viewBox="0 0 1470 1373" version="1.1" xmlns="http://www.w3.org/2000/svg" xmlns:xlink="http://www.w3.org/1999/xlink">
    <!-- Generator: Sketch 63.1 (92452) - https://sketch.com -->
    <title>fitness-weight-lifting</title>
    <desc>Created by Webpixels.</desc>
    <g id="Page-1" stroke="none" stroke-width="1" fill="none" fill-rule="evenodd">
        <g id="fitness-weight-lifting">
            <line x1="673" y1="1195.8" x2="957.4" y2="1195.8" id="Path" stroke="#CED5E5" stroke-width="3" stroke-linecap="round" stroke-linejoin="round"></line>
            <line x1="994.9" y1="1195.8" x2="1092" y2="1195.8" id="Path" stroke="#CED5E5" stroke-width="3" stroke-linecap="round" stroke-linejoin="round"></line>
            <line x1="1113.8" y1="1195.8" x2="1146.4" y2="1195.8" id="Path" stroke="#CED5E5" stroke-width="3" stroke-linecap="round" stroke-linejoin="round"></line>
            <line x1="458.7" y1="1195.8" x2="555.7" y2="1195.8" id="Path" stroke="#CED5E5" stroke-width="3" stroke-linecap="round" stroke-linejoin="round"></line>
            <line x1="577.6" y1="1195.8" x2="610.1" y2="1195.8" id="Path" stroke="#CED5E5" stroke-width="3" stroke-linecap="round" stroke-linejoin="round"></line>
            <path d="M231,814.3 C186.1,903.9 211.9,1006.8 282.1,1064.7 C341.1,1113.3 415.8,1099.1 439.3,1096.8 C563.9,1084.5 746.3,1026.8 872.2,964.7 C1049.9,877.1 929.2,1141.8 1145.6,1121.4 C1226.3,1113.8 1319.7,982.7 1282.5,913.4 C1174.5,712.3 1305.9,673.9 1259,611.4 C1190,519.4 1026.3,535.5 979.2,526.9 C835.4,500.6 867.3,372.3 782.5,338.2 C696.2,303.5 628.5,352.2 603.7,373.8 C513.2,452.6 593.1,566.5 516.9,650.9 C478.5,693.4 442,700.5 382.3,710.1 C312.1,721.3 264,748.5 231,814.3 Z" id="Path" fill="#F1F2F7" fill-rule="nonzero"></path>
            <path d="M850.3,1305.6 C850.3,1305.6 871.8,1298.9 891.4,1305.6 C911.4,1312.5 928.4,1324.9 940.3,1334.4 C963.8,1353.2 969,1368.1 969,1368.1 C969,1368.1 950.8,1376.2 914.2,1369 C877.6,1361.8 846.2,1344.3 846.2,1344.3 L850.3,1305.6 Z" id="Path" fill="#5900CC" fill-rule="nonzero"></path>
            <path d="M703,1305.6 C703,1305.6 682.3,1300.2 662.7,1306.9 C642.7,1313.8 625,1325 613.1,1334.5 C589.6,1353.3 584.4,1368.2 584.4,1368.2 C584.4,1368.2 602.6,1376.3 639.2,1369.1 C675.8,1361.9 707.2,1344.4 707.2,1344.4 L703,1305.6 Z" id="Path" fill="#5900CC" fill-rule="nonzero"></path>
            <path d="M667.3,968 C667.3,968 649.8,1067.6 648.6,1086.6 C647.4,1105.6 665.4,1305.7 665.4,1305.7 C665.4,1305.7 672.5,1311.2 682.2,1311.2 C691.9,1311.2 703,1305.7 703,1305.7 C703,1305.7 719.5,1122.8 723.8,1093.6 C728.1,1064.4 740.5,1013.9 740.5,1013.9 L754.7,955 L677.5,944.7 L667.3,968 Z" id="Path" fill="#FFDFD7" fill-rule="nonzero"></path>
            <path d="M889.2,968 C889.2,968 908.3,1067.6 909.6,1086.6 C910.9,1105.6 891.3,1305.7 891.3,1305.7 C891.3,1305.7 881.7,1310.7 870.9,1310 C860.1,1309.3 850.2,1305.7 850.2,1305.7 C850.2,1305.7 832.2,1122.8 827.5,1093.6 C822.7,1064.5 809.3,1013.9 809.3,1013.9 L793.8,955 L878.1,944.7 L889.2,968 Z" id="Path" fill="#FFDFD7" fill-rule="nonzero"></path>
            <path d="M701.6,796.8 L653,978.5 C653,978.5 726.9,998.3 765.2,1006.8 L784.7,919 L779.2,801.1 L701.6,796.8 Z" id="Path" fill="#FFC933" fill-rule="nonzero"></path>
            <path d="M857.1,793.1 L902.8,973.4 C902.8,973.4 830.4,998.4 792.1,1006.8 L772.6,919 L778.1,801.1 L857.1,793.1 Z" id="Path" fill="#FFC933" fill-rule="nonzero"></path>
            <path d="M975,495.7 C975,495.7 991.8,470.8 991.8,457 C991.8,443.1 939.7,442.7 931.4,446 C923.2,449.3 941.9,485.2 941.9,485.2 L975,495.7 Z" id="Path" fill="#FFDFD7" fill-rule="nonzero"></path>
            <path d="M550.9,494 C550.9,494 534.5,468.2 534.5,454.3 C534.5,440.4 586.6,440 594.9,443.3 C603.1,446.6 588.6,482.8 588.6,482.8 L550.9,494 Z" id="Path" fill="#FFDFD7" fill-rule="nonzero"></path>
            <rect id="Rectangle" fill="#CED5E5" fill-rule="nonzero" x="276.6" y="436.5" width="930.5" height="26.8"></rect>
            <path d="M550.9,494 C550.9,494 574.9,639.1 580,656.5 C585.2,673.9 591.3,688.9 603.5,687 C615.7,685.1 705.8,565.7 705.8,565.7 L772.1,554.5 L840.7,577 C840.7,577 887.7,663.9 913.5,679.4 C939.3,694.9 961.4,663.4 967.5,635.3 C973.6,607.2 975.5,472.8 975.5,472.8 L944,472.8 L919.2,620.7 C919.2,620.7 870.2,499.6 817.1,484.7 C817.1,484.7 786.8,478.3 767.3,477.5 C747.8,476.7 727.3,482.7 727.3,482.7 C727.3,482.7 697.5,486.9 688.7,490.7 C679.9,494.5 620,598.3 620,598.3 L588.5,482.8 L550.9,494 Z" id="Path" fill="#FFDFD7" fill-rule="nonzero"></path>
            <path d="M696.5,801.7 C696.5,801.7 693.8,796.9 693.8,738.2 C693.8,679.5 703.6,570.1 703.6,570.1 C703.6,570.1 724.3,534.9 721.2,482.3 L740.7,478.5 C740.7,478.5 743,516.5 758.5,522.6 C774,528.7 790,507.6 794.2,478.5 L817.2,483.7 C817.2,483.7 809.7,548 840.7,577.2 C840.7,577.2 867.5,768.7 864.7,796.9 C864.7,796.8 773.1,814.8 696.5,801.7 Z" id="Path" fill="#FE8163" fill-rule="nonzero"></path>
            <polygon id="Path" fill="#FFDFD7" fill-rule="nonzero" points="745.8 478.9 751.4 435.7 783.4 435.2 788.3 479.9"></polygon>
            <path d="M707.8,316.9 C707.8,316.9 698.9,396.8 707.8,420.1 C716.7,443.4 748.9,445.7 761,442.8 C773.1,439.9 783.4,435.2 783.4,435.2 C783.4,435.2 799.5,358.3 796.9,331 C794.3,303.7 710.1,291.6 707.8,316.9 Z" id="Path" fill="#FFDFD7" fill-rule="nonzero"></path>
            <g id="Group" transform="translate(301.000000, 342.000000)" fill="#141B25" fill-rule="nonzero">
                <g id="Rectangle">
                    <rect x="45.1" y="0.3" width="36.3" height="214.2"></rect>
                    <rect x="0.7" y="29.3" width="36.3" height="156.2"></rect>
                </g>
                <g transform="translate(800.000000, 0.000000)" id="Rectangle">
                    <rect x="0.4" y="0.3" width="36.3" height="214.2"></rect>
                    <rect x="44.7" y="29.3" width="36.3" height="156.2"></rect>
                </g>
            </g>
            <path d="M534.4,431.1 C534.4,431.1 527.4,445 534.4,449.9 C541.4,454.8 581.7,458.1 586,450.3 C590.4,442.5 595.3,427.3 588.1,425.1 C580.9,422.9 537,421.8 534.4,431.1 Z" id="Path" fill="#FFDFD7" fill-rule="nonzero"></path>
            <path d="M591.1,475.5 C591.1,475.5 609.2,457.7 608.4,451.7 C607.6,445.8 605.9,443.7 601.7,445.9 C597.5,448.1 577.6,463.2 577.6,463.2 L591.1,475.5 Z" id="Path" fill="#FFDFD7" fill-rule="nonzero"></path>
            <path d="M940.3,481.9 C940.3,481.9 917,460.4 917.8,454.4 C918.6,448.5 920.3,446.4 924.5,448.6 C928.7,450.8 948.6,465.9 948.6,465.9 L940.3,481.9 Z" id="Path" fill="#FFDFD7" fill-rule="nonzero"></path>
            <path d="M991.8,433.7 C991.8,433.7 998.8,447.6 991.8,452.5 C984.8,457.4 944.5,460.7 940.2,452.9 C935.9,445.1 930.9,429.9 938.1,427.7 C945.3,425.6 989.2,424.5 991.8,433.7 Z" id="Path" fill="#FFDFD7" fill-rule="nonzero"></path>
            <path d="M550.9,504.3 C550.9,504.3 566.3,492.3 593.1,491.6 L598.2,511.8 C598.2,511.8 569.7,514.1 555,524.8 L550.9,504.3 Z" id="Path" fill="#FEAC00" fill-rule="nonzero"></path>
            <path d="M976.2,499.8 C976.2,499.8 966.9,492.4 940.1,491.7 L935.8,513.1 C935.8,513.1 961.2,513.5 975.9,524.1 L976.2,499.8 Z" id="Path" fill="#FEAC00" fill-rule="nonzero"></path>
            <rect id="Rectangle" fill="#CED5E5" fill-rule="nonzero" x="0.7" y="1213.6" width="422.4" height="27"></rect>
            <rect id="Rectangle" fill="#5900CC" fill-rule="nonzero" x="57.2" y="1132.4" width="31.5" height="189.5"></rect>
            <rect id="Rectangle" fill="#5900CC" fill-rule="nonzero" x="18.5" y="1157.5" width="31.5" height="139.3"></rect>
            <rect id="Rectangle" fill="#5900CC" fill-rule="nonzero" transform="translate(350.830000, 1227.152200) rotate(-180.000000) translate(-350.830000, -1227.152200) " x="335.08" y="1132.4022" width="31.5" height="189.5"></rect>
            <rect id="Rectangle" fill="#5900CC" fill-rule="nonzero" transform="translate(389.572500, 1227.152200) rotate(-180.000000) translate(-389.572500, -1227.152200) " x="373.8225" y="1157.5022" width="31.5" height="139.3"></rect>
            <path d="M706.9,326 C706.9,326 697.3,308.6 711.8,298.7 C726.3,288.8 761.6,274.1 792.4,292.9 C823.2,311.7 786.3,422.1 786.3,422.1 L782.1,387.3 L778.2,369 L759.9,369.2 C759.9,369.2 767.8,329.8 755.6,325.9 C748.8,323.7 706.9,326 706.9,326 Z" id="Path" fill="#5900CC" fill-rule="nonzero"></path>
            <path d="M769.9,369 C769.9,369 767,339.9 784.3,341.9 C801.5,343.9 796.3,366 796.3,366 C796.3,366 788.8,385.7 774.3,386.8 C769.1,387.3 769.9,369 769.9,369 Z" id="Path" fill="#FFDFD7" fill-rule="nonzero"></path>
            <path d="M1153.7,1238.5 L1153.7,1350.4 L1201.7,1350.4 L1204,1330.5 C1206.4,1310 1223.7,1294.5 1244.4,1294.5 L1378.4,1294.5 C1399.1,1294.5 1416.4,1310 1418.8,1330.5 L1421.1,1350.4 L1469.1,1350.4 L1469.1,1238.5 L1153.7,1238.5 Z" id="Path" fill="#52CB96" fill-rule="nonzero"></path>
            <path d="M1335.6,1063 L1335.6,1063 C1309.2,1063 1287.8,1084.4 1287.8,1110.8 L1287.8,1238.6 L1383.30035,1238.6 L1383.30035,1110.8 C1383.4,1084.4 1362,1063 1335.6,1063 Z" id="Path" fill="#F1F2F7" fill-rule="nonzero"></path>
            <path d="M1346.3,1067.3 L1325,1067.3 C1318.2,1067.3 1312.7,1061.8 1312.7,1055 L1312.7,1044.9 C1312.7,1038.1 1318.2,1032.6 1325,1032.6 L1346.3,1032.6 C1353.1,1032.6 1358.6,1038.1 1358.6,1044.9 L1358.6,1055 C1358.6,1061.8 1353.1,1067.3 1346.3,1067.3 Z" id="Path" fill="#37B37F" fill-rule="nonzero"></path>
            <line x1="1287.9" y1="1150.8" x2="1383.4" y2="1150.8" id="Path" stroke="#CED5E5" stroke-width="3" stroke-linecap="round" stroke-linejoin="round"></line>
            <line x1="1287.9" y1="1172.5" x2="1383.4" y2="1172.5" id="Path" stroke="#CED5E5" stroke-width="3" stroke-linecap="round" stroke-linejoin="round"></line>
            <line x1="1287.9" y1="1194.1" x2="1383.4" y2="1194.1" id="Path" stroke="#CED5E5" stroke-width="3" stroke-linecap="round" stroke-linejoin="round"></line>
            <line x1="778.9" y1="947.6" x2="778.9" y2="867.4" id="Path" stroke="#FEAC00" stroke-width="3" stroke-linecap="round" stroke-linejoin="round"></line>
            <line x1="768.7" y1="867.4" x2="790.3" y2="867.4" id="Path" stroke="#FEAC00" stroke-width="3" stroke-linecap="round" stroke-linejoin="round"></line>
            <path d="M836.1,108 C836,108 835.9,108 835.8,108 C830.8,107.9 826.9,103.7 827.1,98.7 L829.7,8.8 C829.8,3.8 834,-0.1 839,0.1 C844,0.2 847.9,4.4 847.7,9.4 L845.1,99.3 C845,104.1 841,108 836.1,108 Z" id="Path" fill="#F1F2F7" fill-rule="nonzero"></path>
            <path d="M834.5,164.2 C834.4,164.2 834.3,164.2 834.2,164.2 C829.2,164.1 825.3,159.9 825.5,154.9 L825.8,143.6 C825.9,138.6 830.1,134.7 835.1,134.9 C840.1,135 844,139.2 843.8,144.2 L843.5,155.5 C843.4,160.3 839.4,164.2 834.5,164.2 Z" id="Path" fill="#F1F2F7" fill-rule="nonzero"></path>
            <path d="M953.9,223.4 C951,223.4 948.1,222 946.4,219.4 C943.6,215.3 944.8,209.7 948.9,206.9 L1010.9,165.5 C1015,162.7 1020.6,163.9 1023.4,168 C1026.2,172.1 1025,177.7 1020.9,180.5 L958.9,221.9 C957.3,222.9 955.6,223.4 953.9,223.4 Z" id="Path" fill="#F1F2F7" fill-rule="nonzero"></path>
            <path d="M1056.7,154.8 C1053.8,154.8 1050.9,153.4 1049.2,150.8 C1046.4,146.7 1047.6,141.1 1051.7,138.3 L1070.1,126 C1074.2,123.2 1079.8,124.4 1082.6,128.5 C1085.4,132.6 1084.2,138.2 1080.1,141 L1061.7,153.3 C1060.2,154.3 1058.4,154.8 1056.7,154.8 Z" id="Path" fill="#F1F2F7" fill-rule="nonzero"></path>
            <path d="M548.9,224.4 C546.4,224.4 544,223.4 542.2,221.4 L492.2,166.1 C488.9,162.4 489.2,156.7 492.8,153.4 C496.5,150.1 502.2,150.4 505.5,154 L555.5,209.3 C558.8,213 558.5,218.7 554.9,222 C553.3,223.6 551.1,224.4 548.9,224.4 Z" id="Path" fill="#F1F2F7" fill-rule="nonzero"></path>
            <path d="M466.1,132.6 C463.6,132.6 461.2,131.6 459.4,129.6 L444.6,113.2 C441.3,109.5 441.6,103.8 445.2,100.5 C448.9,97.2 454.6,97.5 457.9,101.1 L472.7,117.5 C476,121.2 475.7,126.9 472.1,130.2 C470.4,131.9 468.2,132.6 466.1,132.6 Z" id="Path" fill="#F1F2F7" fill-rule="nonzero"></path>
            <path d="M682.2,102 C678.6,102 675.3,99.9 673.9,96.4 L643.2,21 C641.3,16.4 643.5,11.1 648.2,9.3 C652.8,7.4 658.1,9.6 659.9,14.3 L690.5,89.6 C692.4,94.2 690.2,99.5 685.5,101.3 C684.5,101.8 683.3,102 682.2,102 Z" id="Path" fill="#F1F2F7" fill-rule="nonzero"></path>
            <path d="M696.9,138.1 C693.3,138.1 690,136 688.6,132.5 L687.8,130.5 C685.9,125.9 688.1,120.6 692.8,118.8 C697.4,116.9 702.7,119.1 704.5,123.8 L705.3,125.8 C707.2,130.4 705,135.7 700.3,137.5 C699.1,137.9 698,138.1 696.9,138.1 Z" id="Path" fill="#F1F2F7" fill-rule="nonzero"></path>
        </g>
    </g>
</svg>