<?xml version="1.0" standalone="no"?>
<svg width="1310px" height="1363px" viewBox="0 0 1310 1363" version="1.1" xmlns="http://www.w3.org/2000/svg" xmlns:xlink="http://www.w3.org/1999/xlink">
    <!-- Generator: Sketch 63.1 (92452) - https://sketch.com -->
    <title>fitness-jump</title>
    <desc>Created by Webpixels.</desc>
    <g id="Page-1" stroke="none" stroke-width="1" fill="none" fill-rule="evenodd">
        <g id="fitness-jump">
            <path d="M23.5,772.7 C23.5,772.7 -4.2,712 59.4,670 C123,628 229.2,738.8 310.9,661.2 C392.6,583.6 369.4,588 409.5,500.9 C449.6,413.8 587,376.8 728.2,439.6 C869.4,502.4 825.7,412.3 993.3,413.3 C1160.8,414.3 1083.6,807.8 861.5,860.7 C639.4,913.6 508.8,1017.3 412.8,1053.7 C316.7,1090.2 86.4,922.9 23.5,772.7 Z" id="Path" fill="#F1F2F7" fill-rule="nonzero"></path>
            <line x1="364.5" y1="1231.9" x2="848.6" y2="1231.9" id="Path" stroke="#CED5E5" stroke-width="3" stroke-linecap="round" stroke-linejoin="round"></line>
            <line x1="42" y1="1231.9" x2="207.1" y2="1231.9" id="Path" stroke="#CED5E5" stroke-width="3" stroke-linecap="round" stroke-linejoin="round"></line>
            <line x1="222.3" y1="1231.9" x2="258.5" y2="1231.9" id="Path" stroke="#CED5E5" stroke-width="3" stroke-linecap="round" stroke-linejoin="round"></line>
            <path d="M307.5,532.6 C307.5,532.6 281.7,527.7 277.1,527.4 C274.1,527.2 231,539.7 231,539.7 L229,545.4 L226.1,553.8 C226.1,553.8 222.6,569.7 241.5,569.4 C260.4,569.2 296,555 296,555 L307.5,532.6 Z" id="Path" fill="#FFDFD7" fill-rule="nonzero"></path>
            <path d="M902.8,396.4 C902.8,396.4 925,382.3 929.1,380.3 C931.9,379 976.5,374.7 976.5,374.7 L980.4,379.3 L986.2,386 C986.2,386 995.3,399.5 977.7,406.2 C960.1,412.9 921.8,412.9 921.8,412.9 L902.8,396.4 Z" id="Path" fill="#FFDFD7" fill-rule="nonzero"></path>
            <path d="M976.6,374.7 C976.6,374.7 977.4,380.4 959.5,384.1 C941.6,387.8 933.7,389 933.7,389" id="Path" stroke="#FFFFFF" stroke-width="2" fill="#FFDFD7" fill-rule="nonzero" stroke-linecap="round" stroke-linejoin="round"></path>
            <path d="M251.2,547.7 C238.5,548.4 228,545.9 218.1,546 C205.6,546.1 206.6,557.8 208,570.2 C216,642.3 246.5,863.5 271,968 C300.3,1092.7 381.9,1243.8 586,1183.3 C790.1,1122.8 868.2,868.7 884.1,761.5 C900,654.3 993.4,402.9 993.4,402.9 C993.4,402.9 1008.2,368.9 962.5,388" id="Path" stroke="#5900CC" stroke-width="8" stroke-linecap="round" stroke-linejoin="round"></path>
            <path d="M517.6,333.100803 C516.7,333.3 526.5,296.1 516.1,273.1 C505.7,250 532.1,202.9 562.5,226.5 L567,269.2 C567,269.2 552.2,326.2 517.6,333.100803 Z" id="Path" fill="#FE8163" fill-rule="nonzero"></path>
            <path d="M476.1,1204.3 L444.6,1245.6 C444.6,1245.6 460.8,1319.7 527.9,1329.2 C527.9,1329.2 534.4,1302 525.5,1286.9 C517.6,1273.5 493.9,1249.1 485.2,1243.6 L498.9,1232.8 L476.1,1204.3 Z" id="Path" fill="#5900CC" fill-rule="nonzero"></path>
            <path d="M587,389.8 L598.6,341.1 L617.8,346.6 L620.2,392.8 L620.2,421.4 L601.8,428.4 C601.8,428.4 587.9,415.2 587.8,414.6 C587.7,414 587,389.8 587,389.8 Z" id="Path" fill="#FFDFD7" fill-rule="nonzero"></path>
            <path d="M522.4,450.8 C522.4,450.8 506.4,416.9 512.9,404.6 C519.3,392.3 556.4,382.7 581.5,390 C606.6,397.3 540,459.4 522.4,450.8 Z" id="Path" fill="#FFC933" fill-rule="nonzero"></path>
            <line x1="957.8" y1="1231.9" x2="1180.3" y2="1231.9" id="Path" stroke="#CED5E5" stroke-width="3" stroke-linecap="round" stroke-linejoin="round"></line>
            <line x1="1195.6" y1="1231.9" x2="1231.9" y2="1231.9" id="Path" stroke="#CED5E5" stroke-width="3" stroke-linecap="round" stroke-linejoin="round"></line>
            <line x1="1252.1" y1="1231.9" x2="1270.2" y2="1231.9" id="Path" stroke="#CED5E5" stroke-width="3" stroke-linecap="round" stroke-linejoin="round"></line>
            <circle id="Oval" fill="#FFB3DA" fill-rule="nonzero" cx="1104.1" cy="1026" r="205.9"></circle>
            <path d="M182.2,1148.6 L102,1148.6 C90.8,1148.6 81.7,1139.5 81.7,1128.3 L81.7,1108 C81.7,1076.8 107.1,1051.5 138.2,1051.5 L146.1,1051.5 C177.3,1051.5 202.6,1076.9 202.6,1108 L202.6,1128.3 C202.5,1139.5 193.4,1148.6 182.2,1148.6 Z M138.1,1068.9 C116.6,1068.9 99,1086.4 99,1108 L99,1128.3 C99,1129.9 100.3,1131.2 101.9,1131.2 L182.1,1131.2 C183.7,1131.2 185,1129.9 185,1128.3 L185,1108 C185,1086.5 167.5,1068.9 145.9,1068.9 L138.1,1068.9 Z" id="Shape" fill="#5900CC" fill-rule="nonzero"></path>
            <path d="M218,1171.5 C218,1129.6 184.1,1095.7 142.2,1095.7 C100.3,1095.7 66.4,1129.6 66.4,1171.5 C66.4,1213.4 100.3,1231.9 142.2,1231.9 C184,1231.9 218,1213.4 218,1171.5 Z" id="Path" fill="#8B34FF" fill-rule="nonzero"></path>
            <path d="M544.6,685.8 C544.6,685.8 527.3,748.4 544.6,806.9 C561.9,865.4 590.3,925.8 590.3,925.8 C590.3,925.8 480.6,1065.2 467.3,1207.4 L502.5,1237.3 C502.5,1237.3 648.9,1002.2 661.3,968.4 C673.7,934.7 632.9,713.7 632.9,713.7 L628.9,671.6 L548.2,676.5 L544.6,685.8 Z" id="Path" fill="#52CB96" fill-rule="nonzero"></path>
            <path d="M685.3,667.6 C685.3,667.6 744.8,864.6 752.7,919.6 C760.7,974.6 759.8,1268.3 759.8,1268.3 L709.2,1268.3 C709.2,1268.3 672.8,1069.5 685.2,967.9 L653.7,842.3 L614.2,672.4 L685.3,667.6 Z" id="Path" fill="#52CB96" fill-rule="nonzero"></path>
            <path d="M294.4,558 L308.6,530.5 L321.9,534 C321.9,534 326.5,527.8 335.9,529.1 C345.4,530.4 452.7,557.9 452.7,557.9 C452.7,557.9 540,405.6 586.6,389.6 C586.6,389.6 604.6,395.1 612.8,419.8 C612.8,419.8 617.5,407.8 620.3,392.7 C620.3,392.7 644.3,394.3 685.3,436.2 C726.3,478.1 763.6,496.1 763.6,496.1 C763.6,496.1 856.8,414.2 867,407.4 C877.2,400.5 885.6,402.3 885.6,402.3 L900.5,392.5 L927.6,417.3 L917.5,425.6 C917.5,425.6 921.6,432.7 916.9,438.6 C912.2,444.5 773.2,558.7 763.4,563.7 C753.6,568.7 663.7,490.9 663.7,490.9 C663.7,490.9 702.6,650.6 682.2,650 L675.4,655.8 L548.2,662 L548.2,659.4 C548.2,659.4 540.7,654.3 543.8,631.7 C546.9,609.1 562,492.4 562,492.4 C562,492.4 486.1,594.9 477.7,604.6 C469.3,614.3 422.7,602.8 422.7,602.8 C422.7,602.8 310,576.2 308.7,568.6 C308.7,568.6 307.5,566.3 308.1,563.7 L294.4,558 Z" id="Path" fill="#FFC933" fill-rule="nonzero"></path>
            <path d="M575,310.9 C575,310.9 589.9,346.8 603.6,354.6 C617.3,362.4 634,360.8 644.4,344.6 C654.8,328.4 659.5,271.2 657.3,245.9 C655.1,220.6 592.3,219.9 583.7,234.4 C575,248.8 562.2,269.8 575,310.9 Z" id="Path" fill="#FFDFD7" fill-rule="nonzero"></path>
            <path d="M715.5,1268.3 L715.5,1297 C715.5,1297 740.3,1352.6 807.5,1362.1 C807.5,1362.1 811.6,1333.7 799.8,1323.6 C788,1313.5 762.8,1289.6 753.9,1287.8 L752.5,1268.3 L715.5,1268.3 Z" id="Path" fill="#5900CC" fill-rule="nonzero"></path>
            <path d="M587.8,336 C587.8,336 551.9,305.4 551.8,269.4 C551.6,233.6 559.2,221.2 575.1,211.1 C591,201 649.7,190.2 657.2,244.1 C657.2,244.1 625.3,251.8 602.2,244.8 C597.1,243.3 591.7,245.8 589.6,250.6 L579.8,285.8 L572.2,299.7 L587.8,336 Z" id="Path" fill="#FE8163" fill-rule="nonzero"></path>
            <path d="M572.1,299.7 C572.1,299.7 554.6,291.9 558.4,270.3 C562.2,248.7 576,263.4 579.7,273.4 C581.9,279.4 581.1,284.9 580.7,287.2 C579.6,295.8 572.1,299.7 572.1,299.7 Z" id="Path" fill="#FFDFD7" fill-rule="nonzero"></path>
            <path d="M587.8,336 C587.8,336 546.6,295.4 547.3,264.8 C547.8,244.9 553.3,233.5 560.5,224.8" id="Path" stroke="#FF562F" stroke-width="3" stroke-linecap="round" stroke-linejoin="round"></path>
            <path d="M548.2,676.5 L548.2,659.4 C548.2,659.4 653.1,660.3 682.2,650.1 L685.3,667.6 C685.3,667.6 652.9,677.6 619.4,679 C585.9,680.3 561.3,679.6 548.2,676.5 Z" id="Path" stroke="#FEAC00" stroke-width="3" fill="#FFC933" fill-rule="nonzero" stroke-linecap="round" stroke-linejoin="round"></path>
            <path d="M521.4,453.1 C521.4,453.1 550.8,415.3 564.6,403.9 C578.4,392.5 582.3,391.5 587.1,389.8" id="Path" stroke="#FEAC00" stroke-width="3" stroke-linecap="round" stroke-linejoin="round"></path>
            <path d="M511.6,408.3 C511.6,408.3 525.9,422.1 556.5,411.5" id="Path" stroke="#FEAC00" stroke-width="3" stroke-linecap="round" stroke-linejoin="round"></path>
            <path d="M612.7,419.8 C612.7,419.8 624,524.8 626.9,562.3 C629.7,599.8 629.7,657.3 629.7,657.3" id="Path" stroke="#FEAC00" stroke-width="3" stroke-linecap="round" stroke-linejoin="round"></path>
            <path d="M632.9,713.7 L653.7,842.3 C653.7,842.3 664.3,923 663.6,942 C662.9,961.1 663.2,966.9 653.6,984.5 C644,1002.1 502.5,1237.2 502.5,1237.2 L467.3,1207.3" id="Path" stroke="#F1F2F7" stroke-width="3" stroke-linecap="round" stroke-linejoin="round"></path>
            <path d="M226.1,553.8 C226.1,553.8 236.3,547.5 243.4,547.8 C250.5,548 263.5,546.5 264,555.9 C264.3,560.3 264.7,565.5 264.7,565.5" id="Path" stroke="#FFFFFF" stroke-width="2" fill="#FFDFD7" fill-rule="nonzero" stroke-linecap="round" stroke-linejoin="round"></path>
            <path d="M231,539.7 C231,539.7 232.3,545.3 250.4,542.1 C268.4,538.8 276.2,537.1 276.2,537.1" id="Path" stroke="#FFFFFF" stroke-width="2" fill="#FFDFD7" fill-rule="nonzero" stroke-linecap="round" stroke-linejoin="round"></path>
            <path d="M986.3,386 C986.3,386 974.5,383.9 968,386.8 C961.5,389.6 948.9,393 951.8,401.9 C953.2,406 954.7,411 954.7,411" id="Path" stroke="#FFFFFF" stroke-width="2" fill="#FFDFD7" fill-rule="nonzero" stroke-linecap="round" stroke-linejoin="round"></path>
            <path d="M898.7,1040.7 C898.7,1040.7 1108,1103 1303.7,975.5" id="Path" stroke="#ED85C3" stroke-width="3" stroke-linecap="round" stroke-linejoin="round"></path>
            <polygon id="Path" fill="#F1F2F7" fill-rule="nonzero" points="170.2 180.1 177.1 341.9 238.2 316 279.7 412.9 269.1 249 211.2 272.9"></polygon>
            <polygon id="Path" fill="#F1F2F7" fill-rule="nonzero" points="888 241 968.8 150.7 922.6 132.6 951 59 871 152.4 914.5 169.9"></polygon>
            <rect id="Rectangle" fill="#F1F2F7" fill-rule="nonzero" transform="translate(685.289890, 15.605680) rotate(34.138191) translate(-685.289890, -15.605680) " x="674.689717" y="5.00550653" width="21.2003469" height="21.2003469"></rect>
            <rect id="Rectangle" fill="#F1F2F7" fill-rule="nonzero" transform="translate(17.579140, 374.742680) rotate(72.793639) translate(-17.579140, -374.742680) " x="3.97978819" y="361.143328" width="27.1987036" height="27.1987036"></rect>
            <circle id="Oval" fill="#F1F2F7" fill-rule="nonzero" cx="302.5" cy="99.3" r="13.5"></circle>
            <circle id="Oval" fill="#F1F2F7" fill-rule="nonzero" cx="740.4" cy="141" r="9"></circle>
        </g>
    </g>
</svg>